<svg width="1440" height="265" viewBox="0 0 1440 265" fill="none" xmlns="http://www.w3.org/2000/svg">
<path d="M35.5 240.5L111 157.5L152 205.5L298.5 82L343.5 191L400.5 167.5L465.5 223L545.5 157.5L576 191" stroke="white" stroke-width="4"/>
<path d="M858 204L885.5 170.5L922 194L954 141.5L983 153L1003.5 141.5L1021 114H1053L1090.5 83.5L1140 160.5L1202.5 114L1302.5 204L1330.5 170.5L1391.5 228.5" stroke="white" stroke-width="4"/>
<circle cx="111" cy="158" r="6" fill="white"/>
<circle cx="251" cy="121" r="6" fill="white"/>
<circle cx="297" cy="82" r="6" fill="white"/>
<circle cx="343" cy="190" r="6" fill="white"/>
<circle cx="401" cy="167" r="6" fill="white"/>
<circle cx="466" cy="223" r="6" fill="white"/>
<circle cx="545" cy="158" r="6" fill="white"/>
<circle cx="576" cy="190" r="6" fill="white"/>
<circle cx="858" cy="204" r="6" fill="white"/>
<circle cx="885" cy="173" r="6" fill="white"/>
<circle cx="922" cy="194" r="6" fill="white"/>
<circle cx="954" cy="142" r="6" fill="white"/>
<circle cx="984" cy="152" r="6" fill="white"/>
<circle cx="1003" cy="141" r="6" fill="white"/>
<circle cx="1020" cy="115" r="6" fill="white"/>
<circle cx="1053" cy="115" r="6" fill="white"/>
<circle cx="1090" cy="83" r="6" fill="white"/>
<circle cx="1141" cy="161" r="6" fill="white"/>
<circle cx="1303" cy="205" r="6" fill="white"/>
<circle cx="1330" cy="170" r="6" fill="white"/>
<circle cx="516" cy="181" r="6" fill="white"/>
<circle cx="1392" cy="228" r="6" fill="white"/>
<circle cx="1203" cy="115" r="6" fill="white"/>
<circle cx="35" cy="240" r="6" fill="white"/>
<circle cx="152" cy="205" r="6" fill="white"/>
</svg>
