<svg width="275" height="55" viewBox="0 0 275 55" fill="none" xmlns="http://www.w3.org/2000/svg">
<path d="M48 40C47.2 38.4 45.3333 33.3333 44.5 31L40 28.5L33.5 16L26 34L22 31L18 40" stroke="#4BD7AD" stroke-width="4"/>
<path d="M69.0587 40.36C67.7387 40.36 66.5987 40.132 65.6387 39.676C64.6787 39.196 63.8867 38.56 63.2627 37.768C62.6627 36.952 62.2067 36.028 61.8947 34.996C61.6067 33.964 61.4387 32.872 61.3907 31.72C61.3667 31.336 61.3547 30.976 61.3547 30.64C61.3547 30.304 61.3667 29.944 61.3907 29.56C61.4387 28.432 61.6067 27.352 61.8947 26.32C62.2067 25.288 62.6627 24.364 63.2627 23.548C63.8867 22.732 64.6787 22.096 65.6387 21.64C66.5987 21.16 67.7387 20.92 69.0587 20.92C70.4747 20.92 71.6507 21.172 72.5867 21.676C73.5227 22.18 74.2907 22.804 74.8907 23.548V15.268C74.8907 15.028 74.9627 14.836 75.1067 14.692C75.2747 14.524 75.4787 14.44 75.7187 14.44H77.4467C77.6867 14.44 77.8787 14.524 78.0227 14.692C78.1907 14.836 78.2747 15.028 78.2747 15.268V39.172C78.2747 39.412 78.1907 39.616 78.0227 39.784C77.8787 39.928 77.6867 40 77.4467 40H75.8267C75.5627 40 75.3587 39.928 75.2147 39.784C75.0707 39.616 74.9987 39.412 74.9987 39.172V37.66C74.3987 38.428 73.6187 39.076 72.6587 39.604C71.6987 40.108 70.4987 40.36 69.0587 40.36ZM69.8147 37.444C71.0147 37.444 71.9747 37.168 72.6947 36.616C73.4147 36.064 73.9547 35.368 74.3147 34.528C74.6747 33.664 74.8667 32.788 74.8907 31.9C74.9147 31.516 74.9267 31.06 74.9267 30.532C74.9267 29.98 74.9147 29.512 74.8907 29.128C74.8667 28.288 74.6627 27.46 74.2787 26.644C73.9187 25.828 73.3667 25.156 72.6227 24.628C71.9027 24.1 70.9667 23.836 69.8147 23.836C68.5907 23.836 67.6187 24.112 66.8987 24.664C66.1787 25.192 65.6627 25.9 65.3507 26.788C65.0387 27.652 64.8587 28.588 64.8107 29.596C64.7867 30.292 64.7867 30.988 64.8107 31.684C64.8587 32.692 65.0387 33.64 65.3507 34.528C65.6627 35.392 66.1787 36.1 66.8987 36.652C67.6187 37.18 68.5907 37.444 69.8147 37.444ZM88.8488 40.36C87.6488 40.36 86.5568 40.12 85.5728 39.64C84.5888 39.16 83.7968 38.512 83.1968 37.696C82.5968 36.88 82.2968 35.956 82.2968 34.924C82.2968 33.268 82.9688 31.948 84.3128 30.964C85.6568 29.98 87.4088 29.332 89.5688 29.02L94.9328 28.264V27.22C94.9328 26.068 94.5968 25.168 93.9248 24.52C93.2768 23.872 92.2088 23.548 90.7208 23.548C89.6408 23.548 88.7648 23.764 88.0928 24.196C87.4448 24.628 86.9888 25.18 86.7248 25.852C86.5808 26.212 86.3288 26.392 85.9688 26.392H84.3488C84.0848 26.392 83.8808 26.32 83.7368 26.176C83.6168 26.008 83.5568 25.816 83.5568 25.6C83.5568 25.24 83.6888 24.796 83.9528 24.268C84.2408 23.74 84.6728 23.224 85.2488 22.72C85.8248 22.216 86.5568 21.796 87.4448 21.46C88.3568 21.1 89.4608 20.92 90.7568 20.92C92.1968 20.92 93.4088 21.112 94.3928 21.496C95.3768 21.856 96.1448 22.348 96.6968 22.972C97.2728 23.596 97.6808 24.304 97.9208 25.096C98.1848 25.888 98.3168 26.692 98.3168 27.508V39.172C98.3168 39.412 98.2328 39.616 98.0648 39.784C97.9208 39.928 97.7288 40 97.4888 40H95.8328C95.5688 40 95.3648 39.928 95.2208 39.784C95.0768 39.616 95.0048 39.412 95.0048 39.172V37.624C94.6928 38.056 94.2728 38.488 93.7448 38.92C93.2168 39.328 92.5568 39.676 91.7648 39.964C90.9728 40.228 90.0008 40.36 88.8488 40.36ZM89.6048 37.66C90.5888 37.66 91.4888 37.456 92.3048 37.048C93.1208 36.616 93.7568 35.956 94.2128 35.068C94.6928 34.18 94.9328 33.064 94.9328 31.72V30.712L90.7568 31.324C89.0528 31.564 87.7688 31.972 86.9048 32.548C86.0408 33.1 85.6088 33.808 85.6088 34.672C85.6088 35.344 85.8008 35.908 86.1848 36.364C86.5928 36.796 87.0968 37.12 87.6968 37.336C88.3208 37.552 88.9568 37.66 89.6048 37.66ZM110.624 40C109.28 40 108.188 39.748 107.348 39.244C106.508 38.716 105.896 37.984 105.512 37.048C105.128 36.088 104.936 34.96 104.936 33.664V24.16H102.128C101.888 24.16 101.684 24.088 101.516 23.944C101.372 23.776 101.3 23.572 101.3 23.332V22.108C101.3 21.868 101.372 21.676 101.516 21.532C101.684 21.364 101.888 21.28 102.128 21.28H104.936V15.268C104.936 15.028 105.008 14.836 105.152 14.692C105.32 14.524 105.524 14.44 105.764 14.44H107.456C107.696 14.44 107.888 14.524 108.032 14.692C108.2 14.836 108.284 15.028 108.284 15.268V21.28H112.748C112.988 21.28 113.18 21.364 113.324 21.532C113.492 21.676 113.576 21.868 113.576 22.108V23.332C113.576 23.572 113.492 23.776 113.324 23.944C113.18 24.088 112.988 24.16 112.748 24.16H108.284V33.412C108.284 34.54 108.476 35.428 108.86 36.076C109.244 36.724 109.928 37.048 110.912 37.048H113.108C113.348 37.048 113.54 37.132 113.684 37.3C113.852 37.444 113.936 37.636 113.936 37.876V39.172C113.936 39.412 113.852 39.616 113.684 39.784C113.54 39.928 113.348 40 113.108 40H110.624ZM122.599 40.36C121.399 40.36 120.307 40.12 119.323 39.64C118.339 39.16 117.547 38.512 116.947 37.696C116.347 36.88 116.047 35.956 116.047 34.924C116.047 33.268 116.719 31.948 118.063 30.964C119.407 29.98 121.159 29.332 123.319 29.02L128.683 28.264V27.22C128.683 26.068 128.347 25.168 127.675 24.52C127.027 23.872 125.959 23.548 124.471 23.548C123.391 23.548 122.515 23.764 121.843 24.196C121.195 24.628 120.739 25.18 120.475 25.852C120.331 26.212 120.079 26.392 119.719 26.392H118.099C117.835 26.392 117.631 26.32 117.487 26.176C117.367 26.008 117.307 25.816 117.307 25.6C117.307 25.24 117.439 24.796 117.703 24.268C117.991 23.74 118.423 23.224 118.999 22.72C119.575 22.216 120.307 21.796 121.195 21.46C122.107 21.1 123.211 20.92 124.507 20.92C125.947 20.92 127.159 21.112 128.143 21.496C129.127 21.856 129.895 22.348 130.447 22.972C131.023 23.596 131.431 24.304 131.671 25.096C131.935 25.888 132.067 26.692 132.067 27.508V39.172C132.067 39.412 131.983 39.616 131.815 39.784C131.671 39.928 131.479 40 131.239 40H129.583C129.319 40 129.115 39.928 128.971 39.784C128.827 39.616 128.755 39.412 128.755 39.172V37.624C128.443 38.056 128.023 38.488 127.495 38.92C126.967 39.328 126.307 39.676 125.515 39.964C124.723 40.228 123.751 40.36 122.599 40.36ZM123.355 37.66C124.339 37.66 125.239 37.456 126.055 37.048C126.871 36.616 127.507 35.956 127.963 35.068C128.443 34.18 128.683 33.064 128.683 31.72V30.712L124.507 31.324C122.803 31.564 121.519 31.972 120.655 32.548C119.791 33.1 119.359 33.808 119.359 34.672C119.359 35.344 119.551 35.908 119.935 36.364C120.343 36.796 120.847 37.12 121.447 37.336C122.071 37.552 122.707 37.66 123.355 37.66Z" fill="#403C73"/>
<path d="M146.494 40.36C144.094 40.36 142.102 40.024 140.518 39.352C138.934 38.656 137.734 37.756 136.918 36.652C136.102 35.548 135.67 34.372 135.622 33.124C135.622 32.932 135.694 32.764 135.838 32.62C136.006 32.452 136.198 32.368 136.414 32.368H140.95C141.286 32.368 141.538 32.428 141.706 32.548C141.898 32.668 142.066 32.824 142.21 33.016C142.402 33.376 142.666 33.724 143.002 34.06C143.362 34.396 143.818 34.672 144.37 34.888C144.946 35.08 145.654 35.176 146.494 35.176C147.886 35.176 148.93 34.96 149.626 34.528C150.346 34.096 150.706 33.508 150.706 32.764C150.706 32.236 150.514 31.804 150.13 31.468C149.746 31.108 149.122 30.796 148.258 30.532C147.418 30.244 146.29 29.956 144.874 29.668C143.05 29.284 141.49 28.792 140.194 28.192C138.922 27.568 137.95 26.764 137.278 25.78C136.606 24.772 136.27 23.524 136.27 22.036C136.27 20.572 136.678 19.264 137.494 18.112C138.334 16.96 139.498 16.06 140.986 15.412C142.474 14.764 144.238 14.44 146.278 14.44C147.934 14.44 149.386 14.656 150.634 15.088C151.906 15.52 152.974 16.096 153.838 16.816C154.702 17.536 155.35 18.304 155.782 19.12C156.238 19.912 156.478 20.692 156.502 21.46C156.502 21.652 156.43 21.832 156.286 22C156.142 22.144 155.962 22.216 155.746 22.216H150.994C150.73 22.216 150.502 22.168 150.31 22.072C150.118 21.976 149.95 21.82 149.806 21.604C149.662 21.076 149.278 20.62 148.654 20.236C148.054 19.828 147.262 19.624 146.278 19.624C145.222 19.624 144.394 19.816 143.794 20.2C143.218 20.56 142.93 21.124 142.93 21.892C142.93 22.372 143.086 22.792 143.398 23.152C143.734 23.512 144.274 23.824 145.018 24.088C145.786 24.352 146.83 24.628 148.15 24.916C150.334 25.324 152.098 25.84 153.442 26.464C154.786 27.064 155.77 27.856 156.394 28.84C157.018 29.8 157.33 31.012 157.33 32.476C157.33 34.108 156.862 35.524 155.926 36.724C155.014 37.9 153.742 38.8 152.11 39.424C150.478 40.048 148.606 40.36 146.494 40.36ZM159.143 40C158.951 40 158.771 39.928 158.603 39.784C158.459 39.616 158.387 39.436 158.387 39.244C158.387 39.124 158.399 39.016 158.423 38.92L166.883 15.808C166.955 15.544 167.099 15.316 167.314 15.124C167.555 14.908 167.879 14.8 168.287 14.8H173.615C174.023 14.8 174.335 14.908 174.551 15.124C174.791 15.316 174.947 15.544 175.019 15.808L183.443 38.92C183.491 39.016 183.515 39.124 183.515 39.244C183.515 39.436 183.431 39.616 183.263 39.784C183.119 39.928 182.939 40 182.723 40H178.295C177.935 40 177.659 39.916 177.467 39.748C177.299 39.556 177.191 39.388 177.143 39.244L175.739 35.572H166.127L164.759 39.244C164.711 39.388 164.603 39.556 164.435 39.748C164.267 39.916 163.979 40 163.571 40H159.143ZM167.603 30.388H174.299L170.915 20.884L167.603 30.388ZM187.252 40C186.988 40 186.772 39.916 186.604 39.748C186.436 39.58 186.352 39.364 186.352 39.1V15.7C186.352 15.436 186.436 15.22 186.604 15.052C186.772 14.884 186.988 14.8 187.252 14.8H191.068C191.476 14.8 191.764 14.896 191.932 15.088C192.124 15.256 192.244 15.388 192.292 15.484L201.076 29.344V15.7C201.076 15.436 201.16 15.22 201.328 15.052C201.496 14.884 201.712 14.8 201.976 14.8H206.296C206.56 14.8 206.776 14.884 206.944 15.052C207.112 15.22 207.196 15.436 207.196 15.7V39.1C207.196 39.34 207.112 39.556 206.944 39.748C206.776 39.916 206.56 40 206.296 40H202.444C202.06 40 201.772 39.904 201.58 39.712C201.412 39.52 201.304 39.388 201.256 39.316L192.472 25.996V39.1C192.472 39.364 192.388 39.58 192.22 39.748C192.052 39.916 191.836 40 191.572 40H187.252ZM218.671 40C218.407 40 218.191 39.916 218.023 39.748C217.855 39.58 217.771 39.364 217.771 39.1V20.452H211.363C211.099 20.452 210.883 20.368 210.715 20.2C210.547 20.008 210.463 19.792 210.463 19.552V15.7C210.463 15.436 210.547 15.22 210.715 15.052C210.883 14.884 211.099 14.8 211.363 14.8H230.731C230.995 14.8 231.211 14.884 231.379 15.052C231.547 15.22 231.631 15.436 231.631 15.7V19.552C231.631 19.792 231.547 20.008 231.379 20.2C231.211 20.368 230.995 20.452 230.731 20.452H224.323V39.1C224.323 39.364 224.239 39.58 224.071 39.748C223.903 39.916 223.687 40 223.423 40H218.671ZM230.756 40C230.564 40 230.384 39.928 230.216 39.784C230.072 39.616 230 39.436 230 39.244C230 39.124 230.012 39.016 230.036 38.92L238.496 15.808C238.568 15.544 238.712 15.316 238.928 15.124C239.168 14.908 239.492 14.8 239.9 14.8H245.228C245.636 14.8 245.948 14.908 246.164 15.124C246.404 15.316 246.56 15.544 246.632 15.808L255.056 38.92C255.104 39.016 255.128 39.124 255.128 39.244C255.128 39.436 255.044 39.616 254.876 39.784C254.732 39.928 254.552 40 254.336 40H249.908C249.548 40 249.272 39.916 249.08 39.748C248.912 39.556 248.804 39.388 248.756 39.244L247.352 35.572H237.74L236.372 39.244C236.324 39.388 236.216 39.556 236.048 39.748C235.88 39.916 235.592 40 235.184 40H230.756ZM239.216 30.388H245.912L242.528 20.884L239.216 30.388Z" fill="#EC535C"/>
</svg>
